<svg width="24" height="24" viewBox="0 0 24 24" fill="none" xmlns="http://www.w3.org/2000/svg">
<path d="M14.131 0C13.958 0 13.797 0.037 13.648 0.087C13.964 0.297 14.138 0.577 14.224 0.893C14.231 0.936 14.243 0.967 14.249 1.01C14.2565 1.04691 14.2608 1.08437 14.262 1.122C14.286 1.667 14.119 1.736 14.002 2.058C13.822 2.473 13.872 2.919 14.088 3.278C14.1078 3.32614 14.1326 3.37206 14.162 3.415C13.927 1.847 15.235 1.612 15.476 1.122C15.495 0.694 15.142 0.409 14.863 0.211C14.6438 0.0732291 14.39 0.000415742 14.131 0.001V0ZM16.102 0.353C16.078 0.496 16.096 0.459 16.09 0.533C16.084 0.583 16.084 0.645 16.078 0.694C16.065 0.744 16.053 0.794 16.034 0.843C16.022 0.893 16.004 0.943 15.984 0.992L15.917 1.134C15.897 1.159 15.886 1.184 15.867 1.209L15.83 1.264C15.8005 1.30644 15.7695 1.3478 15.737 1.388C15.7 1.426 15.669 1.469 15.625 1.5V1.506C15.588 1.537 15.551 1.574 15.507 1.606C15.377 1.705 15.229 1.779 15.092 1.872C15.049 1.902 15.005 1.928 14.968 1.965C14.926 1.99459 14.8865 2.02771 14.85 2.064C14.807 2.101 14.776 2.138 14.739 2.182C14.708 2.219 14.671 2.262 14.646 2.306C14.6149 2.34787 14.5859 2.39126 14.559 2.436C14.534 2.486 14.516 2.529 14.491 2.578C14.472 2.628 14.454 2.671 14.441 2.721C14.4246 2.77207 14.4103 2.82378 14.398 2.876C14.392 2.901 14.392 2.932 14.386 2.956C14.379 2.981 14.379 3.006 14.373 3.031C14.373 3.081 14.367 3.136 14.367 3.186C14.367 3.223 14.367 3.26 14.373 3.297C14.373 3.347 14.379 3.397 14.392 3.452C14.398 3.502 14.41 3.552 14.422 3.602C14.442 3.651 14.454 3.7 14.472 3.75C14.485 3.78 14.503 3.812 14.516 3.837L13.09 3.285C12.849 3.217 12.613 3.155 12.371 3.099L11.981 3.006C11.609 2.932 11.231 2.876 10.853 2.839C10.84 2.839 10.834 2.833 10.822 2.833C10.1833 2.76902 9.54022 2.76065 8.90004 2.808C8.52204 2.833 8.14404 2.882 7.76604 2.944C7.48513 2.9924 7.20596 3.05044 6.92904 3.118L6.65004 3.192C6.55804 3.229 6.47004 3.272 6.38404 3.31L6.17904 3.403C6.16704 3.409 6.15504 3.409 6.14904 3.415C6.08604 3.446 6.03104 3.471 5.97504 3.502C5.89452 3.53752 5.81576 3.5769 5.73904 3.62C5.69604 3.638 5.65304 3.663 5.61504 3.682C5.59728 3.69302 5.57892 3.70304 5.56004 3.712C5.50404 3.744 5.44804 3.775 5.39804 3.806C5.347 3.83421 5.29759 3.86526 5.25004 3.899C5.20604 3.929 5.16304 3.954 5.12604 3.985C5.12004 3.992 5.11304 3.992 5.10704 3.998C5.07004 4.023 5.02704 4.054 4.98904 4.085L4.97704 4.097L4.88404 4.171C4.87204 4.178 4.85904 4.19 4.84704 4.196C4.81604 4.221 4.78504 4.252 4.75404 4.276C4.74804 4.289 4.73504 4.296 4.72904 4.301C4.69204 4.339 4.65504 4.37 4.61804 4.407C4.61104 4.407 4.61104 4.413 4.60504 4.419C4.5665 4.45269 4.52946 4.48805 4.49404 4.525C4.48704 4.531 4.48704 4.537 4.48104 4.537C4.44849 4.56886 4.41745 4.60223 4.38804 4.637C4.37604 4.649 4.35804 4.661 4.34504 4.673C4.31183 4.71229 4.27644 4.74968 4.23904 4.785C4.23304 4.797 4.22104 4.804 4.21504 4.815C4.16504 4.865 4.12204 4.915 4.07204 4.965L4.05404 4.983C3.95404 5.089 3.84904 5.194 3.73704 5.287C3.62604 5.387 3.50804 5.479 3.39004 5.56C3.15311 5.72923 2.89742 5.87051 2.62804 5.981C2.49804 6.037 2.36104 6.087 2.22504 6.13C1.96504 6.186 1.69804 6.291 1.46904 6.31C1.41904 6.31 1.36404 6.322 1.31404 6.328L1.15904 6.365L1.01004 6.421C0.960037 6.44 0.911037 6.465 0.862037 6.489C0.818037 6.52 0.769037 6.545 0.725037 6.576C0.680916 6.60794 0.639448 6.64338 0.601037 6.682C0.558037 6.712 0.514037 6.756 0.477037 6.793C0.440037 6.836 0.403037 6.873 0.372037 6.917C0.341037 6.967 0.304037 7.01 0.279037 7.06C0.246465 7.10505 0.217381 7.15252 0.192037 7.202C0.167037 7.258 0.142037 7.308 0.124037 7.363C0.105037 7.413 0.0870374 7.469 0.0680374 7.524C0.0560374 7.574 0.0430374 7.624 0.0380374 7.674C0.0380374 7.679 0.0310374 7.686 0.0310374 7.692C0.0190374 7.748 0.0190374 7.822 0.0120374 7.859C0.00603739 7.903 3.73942e-05 7.939 3.73942e-05 7.983C-0.00111312 8.09084 0.0243013 8.19731 0.0740374 8.293V8.299C0.0930374 8.336 0.118037 8.374 0.143037 8.411C0.167037 8.448 0.193037 8.485 0.223037 8.522C0.254037 8.553 0.291037 8.591 0.329037 8.622C0.365171 8.65825 0.404311 8.69136 0.446037 8.721C0.595037 8.851 0.632037 8.894 0.824037 8.993C0.855037 9.012 0.886037 9.024 0.924037 9.043C0.930037 9.043 0.936037 9.049 0.942037 9.049C0.942037 9.062 0.942037 9.068 0.948037 9.08C0.962513 9.18221 0.989377 9.28228 1.02804 9.378C1.04804 9.415 1.06004 9.452 1.07804 9.489C1.08504 9.502 1.09104 9.514 1.09804 9.52C1.12204 9.57 1.14704 9.613 1.17104 9.657L1.26404 9.787C1.29504 9.824 1.33304 9.867 1.37004 9.905C1.40704 9.942 1.44404 9.973 1.48804 10.01C1.48804 10.01 1.49404 10.016 1.50004 10.016C1.53704 10.047 1.57404 10.078 1.61204 10.103C1.65516 10.1333 1.70064 10.16 1.74804 10.183C1.79104 10.208 1.84104 10.233 1.89004 10.252C1.93 10.27 1.9715 10.2844 2.01404 10.295C2.02104 10.301 2.02704 10.301 2.03904 10.307C2.06404 10.314 2.09504 10.32 2.11904 10.326C2.10104 10.661 2.09504 10.976 2.14504 11.088C2.20004 11.212 2.47304 10.834 2.74504 10.4C2.70904 10.828 2.68404 11.33 2.74504 11.479C2.81404 11.634 3.18504 11.15 3.50804 10.617C7.90304 9.601 11.913 12.637 12.334 16.927C12.254 16.257 11.429 15.886 11.051 15.979C10.865 16.437 10.549 17.026 10.041 17.392C10.084 16.982 10.066 16.562 9.97904 16.152C9.84022 16.7227 9.5777 17.256 9.21004 17.714C8.62204 17.757 8.03304 17.472 7.72304 17.044C7.69804 17.026 7.69204 16.989 7.67304 16.964C7.65504 16.921 7.63604 16.877 7.62304 16.834C7.60505 16.7925 7.59261 16.7488 7.58604 16.704C7.58004 16.66 7.58004 16.617 7.58004 16.567V16.474C7.58744 16.43 7.59779 16.3866 7.61104 16.344C7.62404 16.301 7.63604 16.258 7.65504 16.214C7.67904 16.171 7.69804 16.127 7.72904 16.084C7.83404 15.786 7.83404 15.544 7.64204 15.402C7.60475 15.3777 7.56524 15.3569 7.52404 15.34C7.50004 15.334 7.46904 15.322 7.44404 15.315L7.39404 15.297C7.35159 15.2833 7.30812 15.2729 7.26404 15.266C7.2218 15.2536 7.17804 15.2472 7.13404 15.247C7.08903 15.2399 7.04359 15.2359 6.99804 15.235C6.96704 15.235 6.93604 15.241 6.90504 15.241C6.8587 15.2407 6.81256 15.2471 6.76804 15.26C6.72504 15.266 6.68204 15.272 6.63804 15.284C6.59381 15.2959 6.55038 15.3106 6.50804 15.328C6.46504 15.346 6.42804 15.365 6.38404 15.384C6.34704 15.402 6.31004 15.427 6.26604 15.446C4.82204 16.388 5.68404 18.594 6.66904 19.233C6.29704 19.301 5.91904 19.381 5.81404 19.462L5.80104 19.474C6.06804 19.635 6.34704 19.772 6.63804 19.89C7.03504 20.02 7.45604 20.137 7.64204 20.187V20.193C8.15557 20.2985 8.68071 20.3361 9.20404 20.305C11.95 20.113 14.2 18.024 14.609 15.272L14.646 15.433C14.665 15.545 14.689 15.663 14.702 15.78V15.786C14.714 15.842 14.72 15.898 14.727 15.948V15.972C14.733 16.028 14.739 16.084 14.739 16.134C14.745 16.202 14.751 16.27 14.751 16.338V16.438C14.751 16.468 14.758 16.505 14.758 16.536C14.758 16.574 14.751 16.611 14.751 16.648V16.735C14.751 16.778 14.745 16.815 14.745 16.859C14.745 16.884 14.745 16.909 14.739 16.939C14.739 16.983 14.733 17.026 14.733 17.076C14.727 17.094 14.727 17.113 14.727 17.131L14.707 17.274C14.707 17.293 14.707 17.311 14.702 17.33C14.695 17.392 14.683 17.448 14.677 17.51V17.522L14.64 17.696V17.714L14.603 17.881C14.603 17.888 14.596 17.901 14.596 17.906C14.5846 17.9627 14.5703 18.0188 14.553 18.074V18.092C14.534 18.154 14.516 18.21 14.503 18.266C14.497 18.272 14.497 18.278 14.497 18.278L14.441 18.464C14.417 18.526 14.398 18.582 14.373 18.644C14.348 18.706 14.33 18.768 14.305 18.824C14.28 18.886 14.255 18.941 14.231 19.004H14.224C14.2 19.059 14.174 19.121 14.144 19.177C14.1388 19.1918 14.1325 19.2062 14.125 19.22C14.119 19.226 14.119 19.233 14.113 19.239C13.7031 20.0596 13.1065 20.7727 12.371 21.321C12.321 21.352 12.272 21.39 12.222 21.427C12.21 21.439 12.192 21.445 12.179 21.457C12.1347 21.4898 12.0894 21.5211 12.043 21.551L12.061 21.588H12.068L12.328 21.551H12.334C12.495 21.526 12.656 21.495 12.817 21.464C12.861 21.458 12.91 21.445 12.954 21.433L13.041 21.414C13.084 21.408 13.127 21.396 13.171 21.39C13.208 21.377 13.245 21.37 13.282 21.359C13.902 21.209 14.503 21.005 15.08 20.764C14.0839 22.1208 12.759 23.202 11.23 23.906C11.944 23.856 12.656 23.739 13.344 23.54C15.8342 22.8079 17.9375 21.1273 19.201 18.86C18.9458 20.2953 18.3766 21.6564 17.534 22.846C18.1348 22.4498 18.6898 21.9883 19.189 21.47C20.5764 20.0216 21.4872 18.1833 21.799 16.202C22.009 17.182 22.071 18.192 21.979 19.189C26.453 12.948 22.35 6.477 20.633 4.773C20.627 4.76 20.621 4.754 20.621 4.742C20.615 4.748 20.615 4.748 20.615 4.754C20.615 4.748 20.615 4.748 20.608 4.742C20.608 4.816 20.602 4.89 20.596 4.965C20.5789 5.10383 20.5582 5.24221 20.534 5.38C20.504 5.516 20.466 5.653 20.429 5.79C20.385 5.92 20.336 6.056 20.279 6.186C20.2224 6.31439 20.1607 6.44049 20.094 6.564C19.9557 6.80697 19.796 7.0372 19.617 7.252C19.524 7.363 19.425 7.462 19.325 7.562C19.2666 7.61544 19.2066 7.66713 19.145 7.717L19.003 7.841C18.8924 7.92833 18.7765 8.00881 18.656 8.082C18.5376 8.15829 18.4154 8.22871 18.29 8.293C18.16 8.355 18.03 8.411 17.9 8.467C17.6353 8.56771 17.3613 8.64239 17.082 8.69C16.939 8.715 16.797 8.727 16.66 8.74C16.5612 8.74699 16.4621 8.751 16.363 8.752C16.2221 8.75005 16.0813 8.74171 15.941 8.727C15.7995 8.71589 15.6588 8.69517 15.52 8.665C15.3795 8.63949 15.2408 8.60441 15.105 8.56H15.098C15.235 8.547 15.371 8.535 15.508 8.51C15.7871 8.46162 16.061 8.38695 16.326 8.287C16.462 8.237 16.592 8.175 16.716 8.113C16.846 8.051 16.964 7.983 17.088 7.909C17.206 7.829 17.323 7.748 17.435 7.661C17.547 7.574 17.652 7.481 17.751 7.382C17.856 7.289 17.949 7.184 18.042 7.078C18.135 6.967 18.222 6.855 18.302 6.744C18.315 6.725 18.328 6.7 18.34 6.682C18.402 6.582 18.464 6.483 18.52 6.384C18.6567 6.13732 18.7686 5.87772 18.854 5.609C18.898 5.479 18.929 5.343 18.96 5.206C18.985 5.064 19.01 4.928 19.022 4.791C19.034 4.649 19.047 4.506 19.047 4.37C19.047 4.27 19.04 4.171 19.034 4.072C19.0217 3.93318 19.005 3.79478 18.984 3.657C18.9599 3.51729 18.9292 3.3788 18.892 3.242C18.848 3.112 18.805 2.975 18.755 2.845C18.705 2.715 18.644 2.585 18.582 2.461C18.513 2.337 18.445 2.213 18.371 2.095C18.2919 1.97915 18.2092 1.86576 18.123 1.755C18.03 1.649 17.937 1.543 17.838 1.438C17.7859 1.3848 17.7322 1.33311 17.677 1.283C17.397 1.066 17.107 0.862 16.815 0.676C16.775 0.652867 16.7336 0.632163 16.691 0.614C16.5072 0.501434 16.3091 0.41399 16.102 0.354V0.353Z" fill="#D5214A"/>
</svg>
